<svg fill="none" stroke-linecap="square" stroke-miterlimit="10" viewBox="0 0 1152 864" xmlns="http://www.w3.org/2000/svg" xmlns:xlink="http://www.w3.org/1999/xlink"><clipPath id="a"><path d="m0 0h1152v864h-1152z"/></clipPath><g clip-path="url(#a)"><path d="m0 0h1152v864h-1152z" fill="none"/><path d="m281 8h136v126.99213h-136z" fill="#9fc5e8"/><path d="m281 8h136v126.99213h-136z" stroke="#000" stroke-linecap="butt" stroke-linejoin="round" stroke-width="2"/><path d="m319.5 80.036064v-17.1875h6.46875q1.71875 0 2.625.171875 1.265625.203125 2.109375.796875.859375.59375 1.375 1.671875.53125 1.0625.53125 2.328125 0 2.203125-1.40625 3.71875-1.390625 1.515625-5.03125 1.515625h-4.40625v6.984375zm2.265625-9.015625h4.4375q2.203125 0 3.125-.8125.9375-.828125.9375-2.3125 0-1.078125-.546875-1.84375-.546875-.765625-1.4375-1.015625-.578125-.15625-2.125-.15625h-4.390625zm12.6796875 2.796875q0-3.46875 1.921875-5.125 1.609375-1.390625 3.921875-1.390625 2.5625 0 4.1875 1.6875 1.625 1.6875 1.625 4.640625 0 2.40625-.71875 3.78125-.71875 1.375-2.09375 2.140625-1.375.765625-3 .765625-2.625 0-4.234375-1.671875-1.609375-1.6875-1.609375-4.828125zm2.171875 0q0 2.390625 1.03125 3.578125 1.046875 1.1875 2.640625 1.1875 1.5625 0 2.609375-1.1875 1.046875-1.203125 1.046875-3.65625 0-2.3125-1.0625-3.5-1.046875-1.1875-2.59375-1.1875-1.59375 0-2.640625 1.1875-1.03125 1.1875-1.03125 3.578125zm20.035156 6.21875v-1.578125q-1.1875 1.859375-3.484375 1.859375-1.484375 0-2.734375-.8125-1.25-.828125-1.9375-2.296875-.671875-1.46875-.671875-3.390625 0-1.859375.609375-3.375.625-1.515625 1.859375-2.328125 1.25-.8125 2.78125-.8125 1.125 0 2 .484375.890625.46875 1.4375 1.234375v-6.171875h2.09375v17.1875zm-6.671875-6.21875q0 2.390625 1 3.578125 1.015625 1.1875 2.390625 1.1875 1.390625 0 2.34375-1.125.96875-1.140625.96875-3.453125 0-2.5625-.984375-3.75-.984375-1.203125-2.421875-1.203125-1.40625 0-2.359375 1.15625-.9375 1.140625-.9375 3.609375zm25.96875 6.21875h-2.109375v-13.4375q-.75.71875-2 1.453125-1.234375.71875-2.21875 1.078125v-2.03125q1.78125-.828125 3.09375-2.015625 1.328125-1.1875 1.875-2.296875h1.359375z" fill="#000"/><path d="m466 8h136v126.99213h-136z" fill="#9fc5e8"/><path d="m466 8h136v126.99213h-136z" stroke="#000" stroke-linecap="butt" stroke-linejoin="round" stroke-width="2"/><path d="m504.5 80.036064v-17.1875h6.46875q1.71875 0 2.625.171875 1.265625.203125 2.109375.796875.859375.59375 1.375 1.671875.53125 1.0625.53125 2.328125 0 2.203125-1.40625 3.71875-1.390625 1.515625-5.03125 1.515625h-4.40625v6.984375zm2.265625-9.015625h4.4375q2.203125 0 3.125-.8125.9375-.828125.9375-2.3125 0-1.078125-.546875-1.84375-.546875-.765625-1.4375-1.015625-.578125-.15625-2.125-.15625h-4.390625zm12.6796875 2.796875q0-3.46875 1.921875-5.125 1.609375-1.390625 3.921875-1.390625 2.5625 0 4.1875 1.6875 1.625 1.6875 1.625 4.640625 0 2.40625-.71875 3.78125-.71875 1.375-2.09375 2.140625-1.375.765625-3 .765625-2.625 0-4.234375-1.671875-1.609375-1.6875-1.609375-4.828125zm2.171875 0q0 2.390625 1.03125 3.578125 1.046875 1.1875 2.640625 1.1875 1.5625 0 2.609375-1.1875 1.046875-1.203125 1.046875-3.65625 0-2.3125-1.0625-3.5-1.046875-1.1875-2.59375-1.1875-1.59375 0-2.640625 1.1875-1.03125 1.1875-1.03125 3.578125zm20.035156 6.21875v-1.578125q-1.1875 1.859375-3.484375 1.859375-1.484375 0-2.734375-.8125-1.25-.828125-1.9375-2.296875-.671875-1.46875-.671875-3.390625 0-1.859375.609375-3.375.625-1.515625 1.859375-2.328125 1.25-.8125 2.78125-.8125 1.125 0 2 .484375.890625.46875 1.4375 1.234375v-6.171875h2.09375v17.1875zm-6.671875-6.21875q0 2.390625 1 3.578125 1.015625 1.1875 2.390625 1.1875 1.390625 0 2.34375-1.125.96875-1.140625.96875-3.453125 0-2.5625-.984375-3.75-.984375-1.203125-2.421875-1.203125-1.40625 0-2.359375 1.15625-.9375 1.140625-.9375 3.609375zm29.109375 4.1875v2.03125h-11.34375q-.03125-.765625.234375-1.46875.4375-1.15625 1.390625-2.28125.953125-1.125 2.765625-2.609375 2.796875-2.296875 3.78125-3.625.984375-1.34375.984375-2.546875 0-1.25-.90625-2.109375-.890625-.859375-2.328125-.859375-1.515625 0-2.4375.921875-.90625.90625-.921875 2.515625l-2.171875-.21875q.21875-2.421875 1.671875-3.6875 1.453125-1.28125 3.90625-1.28125 2.46875 0 3.90625 1.375 1.453125 1.359375 1.453125 3.390625 0 1.03125-.421875 2.03125-.421875 1-1.40625 2.109375-.96875 1.09375-3.25 3.015625-1.890625 1.59375-2.4375 2.15625-.53125.5625-.890625 1.140625z" fill="#000"/><path d="m776 8h136v126.99213h-136z" fill="#9fc5e8"/><path d="m776 8h136v126.99213h-136z" stroke="#000" stroke-linecap="butt" stroke-linejoin="round" stroke-width="2"/><path d="m812.5078 80.036064v-17.1875h6.46875q1.71875 0 2.625.171875 1.265625.203125 2.109375.796875.859375.59375 1.375 1.671875.53125 1.0625.53125 2.328125 0 2.203125-1.40625 3.71875-1.390625 1.515625-5.03125 1.515625h-4.40625v6.984375zm2.265625-9.015625h4.4375q2.203125 0 3.125-.8125.9375-.828125.9375-2.3125 0-1.078125-.546875-1.84375-.546875-.765625-1.4375-1.015625-.578125-.15625-2.125-.15625h-4.390625zm12.6796875 2.796875q0-3.46875 1.921875-5.125 1.609375-1.390625 3.921875-1.390625 2.5625 0 4.1875 1.6875 1.625 1.6875 1.625 4.640625 0 2.40625-.71875 3.78125-.71875 1.375-2.09375 2.140625-1.375.765625-3 .765625-2.625 0-4.234375-1.671875-1.609375-1.6875-1.609375-4.828125zm2.171875 0q0 2.390625 1.03125 3.578125 1.046875 1.1875 2.640625 1.1875 1.5625 0 2.609375-1.1875 1.046875-1.203125 1.046875-3.65625 0-2.3125-1.0625-3.5-1.046875-1.1875-2.59375-1.1875-1.59375 0-2.640625 1.1875-1.03125 1.1875-1.03125 3.578125zm20.035156 6.21875v-1.578125q-1.1875 1.859375-3.484375 1.859375-1.484375 0-2.734375-.8125-1.25-.828125-1.9375-2.296875-.671875-1.46875-.671875-3.390625 0-1.859375.609375-3.375.625-1.515625 1.859375-2.328125 1.25-.8125 2.78125-.8125 1.125 0 2 .484375.890625.46875 1.4375 1.234375v-6.171875h2.09375v17.1875zm-6.671875-6.21875q0 2.390625 1 3.578125 1.015625 1.1875 2.390625 1.1875 1.390625 0 2.34375-1.125.96875-1.140625.96875-3.453125 0-2.5625-.984375-3.75-.984375-1.203125-2.421875-1.203125-1.40625 0-2.359375 1.15625-.9375 1.140625-.9375 3.609375zm18.859375 6.21875v-17.1875h2.328125l9.03125 13.5v-13.5h2.171875v17.1875h-2.328125l-9.015625-13.5v13.5z" fill="#000"/><path d="m486 210h257.00787v158.99213h-257.00787z" fill="#f9cb9c"/><path d="m486 210h257.00787v158.99213h-257.00787z" stroke="#000" stroke-linecap="butt" stroke-linejoin="round" stroke-width="2"/><path d="m525.0293 271.04v-17.1875h7.609375q2.296875 0 3.484375.46875 1.203125.46875 1.921875 1.640625.71875 1.171875.71875 2.578125 0 1.828125-1.1875 3.09375-1.1875 1.25-3.65625 1.59375.90625.421875 1.375.84375 1 .921875 1.890625 2.296875l2.984375 4.671875h-2.859375l-2.28125-3.578125q-.984375-1.546875-1.640625-2.359375-.640625-.828125-1.15625-1.15625-.5-.328125-1.03125-.453125-.390625-.078125-1.265625-.078125h-2.640625v7.625zm2.265625-9.59375h4.890625q1.5625 0 2.4375-.328125.875-.328125 1.328125-1.03125.46875-.703125.46875-1.546875 0-1.21875-.890625-2-.875-.78125-2.796875-.78125h-5.4375zm27.285156 3.5625 2.28125.578125q-.71875 2.796875-2.578125 4.28125-1.859375 1.46875-4.546875 1.46875-2.765625 0-4.515625-1.125-1.734375-1.140625-2.640625-3.28125-.90625-2.15625-.90625-4.609375 0-2.6875 1.015625-4.6875 1.03125-2 2.921875-3.03125 1.890625-1.03125 4.171875-1.03125 2.578125 0 4.328125 1.3125 1.765625 1.3125 2.453125 3.6875l-2.234375.53125q-.609375-1.875-1.75-2.734375-1.125-.859375-2.84375-.859375-1.984375 0-3.3125.953125-1.328125.953125-1.875 2.546875-.53125 1.59375-.53125 3.296875 0 2.1875.625 3.828125.640625 1.640625 1.984375 2.453125 1.359375.796875 2.921875.796875 1.921875 0 3.234375-1.09375 1.328125-1.109375 1.796875-3.28125zm9.890625 6.328125 4.984375-17.765625h1.6875l-4.96875 17.765625zm15.1953125-.296875v-17.1875h5.90625q2.015625 0 3.0625.25 1.484375.34375 2.515625 1.234375 1.359375 1.140625 2.03125 2.9375.6875 1.78125.6875 4.078125 0 1.953125-.46875 3.46875-.453125 1.515625-1.171875 2.515625-.703125.984375-1.5625 1.546875-.84375.5625-2.046875.859375-1.203125.296875-2.765625.296875zm2.265625-2.03125h3.671875q1.703125 0 2.65625-.3125.96875-.3125 1.546875-.890625.8125-.8125 1.265625-2.171875.453125-1.375.453125-3.3125 0-2.703125-.890625-4.140625-.890625-1.453125-2.15625-1.9375-.90625-.359375-2.9375-.359375h-3.609375zm23.316406-1.984375 2.171875.28125q-.515625 1.90625-1.90625 2.96875-1.390625 1.046875-3.5625 1.046875-2.734375 0-4.34375-1.671875-1.59375-1.6875-1.59375-4.734375 0-3.140625 1.609375-4.875 1.625-1.734375 4.203125-1.734375 2.5 0 4.078125 1.703125 1.59375 1.703125 1.59375 4.78125 0 .1875-.015625.5625h-9.28125q.109375 2.046875 1.15625 3.140625 1.046875 1.09375 2.609375 1.09375 1.15625 0 1.96875-.609375.828125-.609375 1.3125-1.953125zm-6.9375-3.40625h6.953125q-.140625-1.5625-.796875-2.359375-1-1.21875-2.609375-1.21875-1.453125 0-2.453125.984375-.984375.96875-1.09375 2.59375zm11.753906 12.1875v-17.21875h1.921875v1.625q.6875-.953125 1.53125-1.421875.859375-.484375 2.078125-.484375 1.59375 0 2.8125.828125 1.21875.8125 1.84375 2.3125.625 1.5.625 3.28125 0 1.90625-.6875 3.4375-.6875 1.53125-2 2.34375-1.296875.8125-2.734375.8125-1.0625 0-1.90625-.4375-.828125-.453125-1.375-1.140625v6.0625zm1.921875-10.921875q0 2.40625.96875 3.5625.96875 1.140625 2.359375 1.140625 1.40625 0 2.40625-1.1875 1-1.1875 1-3.6875 0-2.375-.984375-3.5625-.96875-1.1875-2.328125-1.1875-1.359375 0-2.390625 1.265625-1.03125 1.25-1.03125 3.65625zm11.378906 6.15625v-17.1875h2.109375v17.1875zm4.5976562-6.21875q0-3.46875 1.921875-5.125 1.609375-1.390625 3.921875-1.390625 2.5625 0 4.1875 1.6875 1.625 1.6875 1.625 4.640625 0 2.40625-.71875 3.78125-.71875 1.375-2.09375 2.140625-1.375.765625-3 .765625-2.625 0-4.234375-1.671875-1.609375-1.6875-1.609375-4.828125zm2.171875 0q0 2.390625 1.03125 3.578125 1.046875 1.1875 2.640625 1.1875 1.5625 0 2.609375-1.1875 1.046875-1.203125 1.046875-3.65625 0-2.3125-1.0625-3.5-1.046875-1.1875-2.59375-1.1875-1.59375 0-2.640625 1.1875-1.03125 1.1875-1.03125 3.578125zm11.863281 11.015625-.234375-1.984375q.703125.1875 1.21875.1875.703125 0 1.125-.234375.421875-.234375.6875-.65625.203125-.3125.640625-1.5625.0625-.1875.1875-.515625l-4.71875-12.484375h2.265625l2.59375 7.21875q.5 1.359375.90625 2.875.359375-1.453125.859375-2.828125l2.671875-7.265625h2.109375l-4.734375 12.671875q-.765625 2.046875-1.1875 2.8125-.5625 1.046875-1.296875 1.53125-.71875.484375-1.734375.484375-.609375 0-1.359375-.25zm12.09375-4.796875v-12.453125h1.890625v1.75q.59375-.90625 1.5625-1.46875.96875-.5625 2.21875-.5625 1.375 0 2.25.578125.890625.578125 1.265625 1.609375 1.46875-2.1875 3.84375-2.1875 1.84375 0 2.84375 1.03125 1 1.03125 1 3.15625v8.546875h-2.109375v-7.84375q0-1.265625-.203125-1.8125-.203125-.5625-.75-.90625-.53125-.34375-1.25-.34375-1.3125 0-2.1875.875-.859375.875-.859375 2.796875v7.234375h-2.109375v-8.09375q0-1.40625-.515625-2.109375-.515625-.703125-1.6875-.703125-.890625 0-1.65625.46875-.75.46875-1.09375 1.375-.34375.90625-.34375 2.609375v6.453125zm28.523438-4.015625 2.171875.28125q-.515625 1.90625-1.90625 2.96875-1.390625 1.046875-3.5625 1.046875-2.734375 0-4.34375-1.671875-1.59375-1.6875-1.59375-4.734375 0-3.140625 1.609375-4.875 1.625-1.734375 4.203125-1.734375 2.5 0 4.078125 1.703125 1.59375 1.703125 1.59375 4.78125 0 .1875-.015625.5625h-9.28125q.109375 2.046875 1.15625 3.140625 1.046875 1.09375 2.609375 1.09375 1.15625 0 1.96875-.609375.828125-.609375 1.3125-1.953125zm-6.9375-3.40625h6.953125q-.140625-1.5625-.796875-2.359375-1-1.21875-2.609375-1.21875-1.453125 0-2.453125.984375-.984375.96875-1.09375 2.59375zm11.753906 7.421875v-12.453125h1.90625v1.78125q1.375-2.0625 3.953125-2.0625 1.125 0 2.0625.40625.953125.40625 1.421875 1.0625.46875.65625.65625 1.5625.125.578125.125 2.046875v7.65625h-2.109375v-7.578125q0-1.28125-.25-1.921875-.25-.640625-.875-1.015625-.625-.390625-1.46875-.390625-1.34375 0-2.328125.859375-.984375.859375-.984375 3.25v6.796875zm17.957031-1.890625.3125 1.859375q-.890625.203125-1.59375.203125-1.15625 0-1.796875-.359375-.625-.375-.890625-.96875-.25-.59375-.25-2.484375v-7.171875h-1.546875v-1.640625h1.546875v-3.078125l2.09375-1.265625v4.34375h2.125v1.640625h-2.125v7.28125q0 .90625.109375 1.171875.125.25.375.40625.25.140625.71875.140625.34375 0 .921875-.078125z" fill="#000"/><path d="m541.49603 298h146.01581v50.992126h-146.01581z" fill="#b6d7a8"/><path d="m541.49603 298h146.01581v50.992126h-146.01581z" stroke="#000" stroke-linecap="butt" stroke-linejoin="round" stroke-width="2"/><path d="m585.56445 326.52045 2.140625-.1875q.15625 1.28125.703125 2.109375.5625.828125 1.734375 1.34375 1.171875.5 2.640625.5 1.296875 0 2.296875-.375 1-.390625 1.484375-1.0625.484375-.6875.484375-1.484375 0-.796875-.46875-1.40625-.46875-.609375-1.546875-1.015625-.6875-.265625-3.0625-.828125-2.359375-.578125-3.3125-1.078125-1.234375-.640625-1.84375-1.59375-.59375-.96875-.59375-2.140625 0-1.3125.734375-2.4375.75-1.125 2.15625-1.703125 1.421875-.59375 3.15625-.59375 1.90625 0 3.359375.609375 1.46875.609375 2.25 1.8125.796875 1.1875.84375 2.703125l-2.171875.171875q-.171875-1.640625-1.1875-2.46875-1.015625-.828125-3-.828125-2.0625 0-3.015625.765625-.9375.75-.9375 1.8125 0 .921875.671875 1.515625.65625.609375 3.421875 1.234375 2.78125.625 3.8125 1.09375 1.5.6875 2.203125 1.75.71875 1.0625.71875 2.4375 0 1.375-.78125 2.59375-.78125 1.203125-2.25 1.890625-1.46875.671875-3.3125.671875-2.328125 0-3.90625-.671875-1.578125-.6875-2.484375-2.046875-.890625-1.375-.9375-3.09375zm24.632812.953125 2.078125.265625q-.34375 2.15625-1.75 3.375-1.390625 1.203125-3.4375 1.203125-2.546875 0-4.109375-1.671875-1.546875-1.671875-1.546875-4.78125 0-2.015625.671875-3.53125.671875-1.515625 2.03125-2.265625 1.359375-.765625 2.96875-.765625 2.03125 0 3.3125 1.03125 1.296875 1.03125 1.65625 2.90625l-2.046875.328125q-.296875-1.265625-1.046875-1.890625-.734375-.640625-1.796875-.640625-1.59375 0-2.59375 1.15625-.984375 1.140625-.984375 3.609375 0 2.5.953125 3.640625.96875 1.140625 2.515625 1.140625 1.234375 0 2.0625-.765625.84375-.765625 1.0625-2.34375zm12 3.03125q-1.171875.984375-2.265625 1.40625-1.078125.40625-2.3125.40625-2.046875 0-3.15625-1-1.09375-1-1.09375-2.5625 0-.921875.40625-1.671875.421875-.75 1.09375-1.203125.671875-.46875 1.515625-.703125.625-.15625 1.875-.3125 2.5625-.3125 3.765625-.734375.015625-.421875.015625-.546875 0-1.28125-.609375-1.8125-.796875-.71875-2.390625-.71875-1.5 0-2.203125.53125-.703125.515625-1.046875 1.84375l-2.0625-.28125q.28125-1.328125.921875-2.140625.640625-.8125 1.859375-1.25 1.21875-.453125 2.828125-.453125 1.59375 0 2.59375.375 1 .375 1.46875.953125.46875.5625.65625 1.4375.09375.53125.09375 1.9375v2.8125q0 2.9375.140625 3.71875.140625.78125.53125 1.5h-2.203125q-.328125-.65625-.421875-1.53125zm-.171875-4.71875q-1.15625.46875-3.453125.796875-1.296875.1875-1.84375.421875-.53125.234375-.828125.6875-.28125.453125-.28125 1 0 .84375.625 1.40625.640625.5625 1.875.5625 1.21875 0 2.171875-.53125.953125-.53125 1.390625-1.453125.34375-.71875.34375-2.109375zm5.3476562 6.25v-17.1875h2.109375v17.1875zm13.910156-4.015625 2.171875.28125q-.515625 1.90625-1.90625 2.96875-1.390625 1.046875-3.5625 1.046875-2.734375 0-4.34375-1.671875-1.59375-1.6875-1.59375-4.734375 0-3.140625 1.609375-4.875 1.625-1.734375 4.203125-1.734375 2.5 0 4.078125 1.703125 1.59375 1.703125 1.59375 4.78125 0 .1875-.015625.5625h-9.28125q.109375 2.046875 1.15625 3.140625 1.046875 1.09375 2.609375 1.09375 1.15625 0 1.96875-.609375.828125-.609375 1.3125-1.953125zm-6.9375-3.40625h6.953125q-.140625-1.5625-.796875-2.359375-1-1.21875-2.609375-1.21875-1.453125 0-2.453125.984375-.984375.96875-1.09375 2.59375z" fill="#000"/><path d="m614.50397 210-265.51184-74.99213" fill="none"/><path d="m614.50397 210-253.96362-71.73041" fill-rule="evenodd" stroke="#000" stroke-linecap="butt" stroke-linejoin="round" stroke-width="2"/><path d="m361.43826 135.0905-9.632416.71209717 7.8365784 5.6460876z" fill="#000" fill-rule="evenodd" stroke="#000" stroke-linecap="butt" stroke-width="2"/><path d="m614.50397 210-80.50397-74.99213" fill="none"/><path d="m614.50397 210-71.72339-66.81276" fill-rule="evenodd" stroke="#000" stroke-linecap="butt" stroke-linejoin="round" stroke-width="2"/><path d="m545.0322 140.77007-8.892822-3.769287 4.3894653 8.603653z" fill="#000" fill-rule="evenodd" stroke="#000" stroke-linecap="butt" stroke-width="2"/><path d="m614.50397 210 229.51178-74.99213" fill="none"/><path d="m614.50397 210 218.10522-71.265076" fill-rule="evenodd" stroke="#000" stroke-linecap="butt" stroke-linejoin="round" stroke-width="2"/><path d="m833.6352 141.87502 7.6013184-5.9590454-9.65332-.32113647z" fill="#000" fill-rule="evenodd" stroke="#000" stroke-linecap="butt" stroke-width="2"/><path d="m658 71 83.02362 1.0078735" fill="none"/><path d="m658 71 83.02362 1.0078735" stroke="#000" stroke-dasharray="8 24" stroke-linecap="butt" stroke-linejoin="round" stroke-width="8"/><path d="m514 436.99213h201.00787v141.98425h-201.00787z" fill="#d5a6bd"/><path d="m514 436.99213h201.00787v141.98425h-201.00787z" stroke="#000" stroke-linecap="butt" stroke-linejoin="round" stroke-width="2"/><g fill="#000"><path d="m562.40234 487.52426v-17.1875h2.28125v7.0625h8.921875v-7.0625h2.28125v17.1875h-2.28125v-8.09375h-8.921875v8.09375zm16.207031-6.21875q0-3.46875 1.921875-5.125 1.609375-1.390625 3.921875-1.390625 2.5625 0 4.1875 1.6875 1.625 1.6875 1.625 4.640625 0 2.40625-.71875 3.78125-.71875 1.375-2.09375 2.140625-1.375.765625-3 .765625-2.625 0-4.234375-1.671875-1.609375-1.6875-1.609375-4.828125zm2.171875 0q0 2.390625 1.03125 3.578125 1.046875 1.1875 2.640625 1.1875 1.5625 0 2.609375-1.1875 1.046875-1.203125 1.046875-3.65625 0-2.3125-1.0625-3.5-1.046875-1.1875-2.59375-1.1875-1.59375 0-2.640625 1.1875-1.03125 1.1875-1.03125 3.578125zm11.941406 6.21875v-12.453125h1.890625v1.890625q.734375-1.328125 1.34375-1.75.625-.421875 1.359375-.421875 1.0625 0 2.171875.6875l-.734375 1.953125q-.765625-.453125-1.546875-.453125-.6875 0-1.25.421875-.546875.40625-.78125 1.140625-.34375 1.125-.34375 2.46875v6.515625zm8.0234375-14.75v-2.4375h2.109375v2.4375zm0 14.75v-12.453125h2.109375v12.453125zm4.2070312 0v-1.71875l7.921875-9.09375q-1.34375.078125-2.375.078125h-5.078125v-1.71875h10.171875v1.40625l-6.734375 7.890625-1.296875 1.4375q1.40625-.09375 2.65625-.09375h5.75v1.8125zm12.328125-6.21875q0-3.46875 1.921875-5.125 1.609375-1.390625 3.921875-1.390625 2.5625 0 4.1875 1.6875 1.625 1.6875 1.625 4.640625 0 2.40625-.71875 3.78125-.71875 1.375-2.09375 2.140625-1.375.765625-3 .765625-2.625 0-4.234375-1.671875-1.609375-1.6875-1.609375-4.828125zm2.171875 0q0 2.390625 1.03125 3.578125 1.046875 1.1875 2.640625 1.1875 1.5625 0 2.609375-1.1875 1.046875-1.203125 1.046875-3.65625 0-2.3125-1.0625-3.5-1.046875-1.1875-2.59375-1.1875-1.59375 0-2.640625 1.1875-1.03125 1.1875-1.03125 3.578125zm11.957031 6.21875v-12.453125h1.90625v1.78125q1.375-2.0625 3.953125-2.0625 1.125 0 2.0625.40625.953125.40625 1.421875 1.0625.46875.65625.65625 1.5625.125.578125.125 2.046875v7.65625h-2.109375v-7.578125q0-1.28125-.25-1.921875-.25-.640625-.875-1.015625-.625-.390625-1.46875-.390625-1.34375 0-2.328125.859375-.984375.859375-.984375 3.25v6.796875zm17.957031-1.890625.3125 1.859375q-.890625.203125-1.59375.203125-1.15625 0-1.796875-.359375-.625-.375-.890625-.96875-.25-.59375-.25-2.484375v-7.171875h-1.546875v-1.640625h1.546875v-3.078125l2.09375-1.265625v4.34375h2.125v1.640625h-2.125v7.28125q0 .90625.109375 1.171875.125.25.375.40625.25.140625.71875.140625.34375 0 .921875-.078125zm10.183594.359375q-1.171875.984375-2.265625 1.40625-1.078125.40625-2.3125.40625-2.046875 0-3.15625-1-1.09375-1-1.09375-2.5625 0-.921875.40625-1.671875.421875-.75 1.09375-1.203125.671875-.46875 1.515625-.703125.625-.15625 1.875-.3125 2.5625-.3125 3.765625-.734375.015625-.421875.015625-.546875 0-1.28125-.609375-1.8125-.796875-.71875-2.390625-.71875-1.5 0-2.203125.53125-.703125.515625-1.046875 1.84375l-2.0625-.28125q.28125-1.328125.921875-2.140625.640625-.8125 1.859375-1.25 1.21875-.453125 2.828125-.453125 1.59375 0 2.59375.375 1 .375 1.46875.953125.46875.5625.65625 1.4375.09375.53125.09375 1.9375v2.8125q0 2.9375.140625 3.71875.140625.78125.53125 1.5h-2.203125q-.328125-.65625-.421875-1.53125zm-.171875-4.71875q-1.15625.46875-3.453125.796875-1.296875.1875-1.84375.421875-.53125.234375-.828125.6875-.28125.453125-.28125 1 0 .84375.625 1.40625.640625.5625 1.875.5625 1.21875 0 2.171875-.53125.953125-.53125 1.390625-1.453125.34375-.71875.34375-2.109375zm5.3476562 6.25v-17.1875h2.109375v17.1875z"/><path d="m595.0117 516.52423v-17.18747h6.46875q1.71875 0 2.625.171875 1.265625.203125 2.109375.796875.859375.59375 1.375 1.671875.53125 1.0625.53125 2.328125 0 2.203125-1.40625 3.71875-1.390625 1.515625-5.03125 1.515625h-4.40625v6.9843445h-2.265625zm2.265625-9.0155945h4.4375q2.203125 0 3.125-.8125.9375-.828125.9375-2.3125 0-1.078125-.546875-1.84375-.546875-.765625-1.4375-1.015625-.578125-.15625-2.125-.15625h-4.390625zm12.6796875 2.796875q0-3.46875 1.921875-5.125 1.609375-1.390625 3.921875-1.390625 2.5625 0 4.1875 1.6875 1.625 1.6875 1.625 4.640625 0 2.4062195-.71875 3.7812195-.71875 1.375-2.09375 2.140625-1.375.765625-3 .765625-2.625 0-4.234375-1.671875-1.609375-1.6875-1.609375-4.8280945zm2.171875 0q0 2.3905945 1.03125 3.5780945 1.046875 1.1875 2.640625 1.1875 1.5625 0 2.609375-1.1875 1.046875-1.203125 1.046875-3.6562195 0-2.3125-1.0625-3.5-1.046875-1.1875-2.59375-1.1875-1.59375 0-2.640625 1.1875-1.03125 1.1875-1.03125 3.578125zm20.035156 6.2187195v-1.578125q-1.1875 1.859375-3.484375 1.859375-1.484375 0-2.734375-.8125-1.25-.828125-1.9375-2.296875-.671875-1.46875-.671875-3.3905945 0-1.859375.609375-3.375.625-1.515625 1.859375-2.328125 1.25-.8125 2.78125-.8125 1.125 0 2 .484375.890625.46875 1.4375 1.234375v-6.171875h2.09375v17.18747h-1.953125zm-6.671875-6.2187195q0 2.3905945 1 3.5780945 1.015625 1.1875 2.390625 1.1875 1.390625 0 2.34375-1.125.96875-1.140625.96875-3.4530945 0-2.5625-.984375-3.75-.984375-1.203125-2.421875-1.203125-1.40625 0-2.359375 1.15625-.9375 1.140625-.9375 3.609375z"/><path d="m557.77734 545.52423 6.59375-17.1875h2.453125l7.03125 17.1875h-2.59375l-2-5.203125h-7.1875l-1.890625 5.203125zm4.953125-7.0625h5.828125l-1.796875-4.75q-.8125-2.171875-1.21875-3.5625-.328125 1.65625-.921875 3.28125zm20.820312 7.0625v-1.828125q-1.453125 2.109375-3.9375 2.109375-1.109375 0-2.0625-.421875-.953125-.421875-1.421875-1.0625-.453125-.640625-.640625-1.5625-.140625-.625-.140625-1.96875v-7.71875h2.109375v6.90625q0 1.65625.140625 2.234375.1875.828125.828125 1.3125.65625.46875 1.609375.46875.9375 0 1.765625-.484375.84375-.5 1.1875-1.328125.34375-.84375.34375-2.4375v-6.671875h2.109375v12.453125zm9.800781-1.890625.3125 1.859375q-.890625.203125-1.59375.203125-1.15625 0-1.796875-.359375-.625-.375-.890625-.96875-.25-.59375-.25-2.484375v-7.171875h-1.546875v-1.640625h1.546875v-3.078125l2.09375-1.265625v4.34375h2.125v1.640625h-2.125v7.28125q0 .90625.109375 1.171875.125.25.375.40625.25.140625.71875.140625.34375 0 .921875-.078125zm1.2773438-4.328125q0-3.46875 1.921875-5.125 1.609375-1.390625 3.921875-1.390625 2.5625 0 4.1875 1.6875 1.625 1.6875 1.625 4.640625 0 2.40625-.71875 3.78125-.71875 1.375-2.09375 2.140625-1.375.765625-3 .765625-2.625 0-4.234375-1.671875-1.609375-1.6875-1.609375-4.828125zm2.171875 0q0 2.390625 1.03125 3.578125 1.046875 1.1875 2.640625 1.1875 1.5625 0 2.609375-1.1875 1.046875-1.203125 1.046875-3.65625 0-2.3125-1.0625-3.5-1.046875-1.1875-2.59375-1.1875-1.59375 0-2.640625 1.1875-1.03125 1.1875-1.03125 3.578125zm11.113281 2.5 2.09375-.328125q.171875 1.25.96875 1.921875.8125.671875 2.25.671875 1.453125 0 2.15625-.59375.703125-.59375.703125-1.390625 0-.71875-.625-1.125-.421875-.28125-2.15625-.71875-2.3125-.578125-3.21875-1-.890625-.4375-1.359375-1.1875-.453125-.765625-.453125-1.671875 0-.828125.375-1.53125.390625-.71875 1.046875-1.1875.484375-.359375 1.328125-.609375.859375-.265625 1.828125-.265625 1.46875 0 2.578125.421875 1.109375.421875 1.625 1.15625.53125.71875.734375 1.921875l-2.0625.28125q-.140625-.96875-.8125-1.5-.671875-.546875-1.90625-.546875-1.453125 0-2.078125.484375-.625.484375-.625 1.125 0 .40625.265625.734375.25.34375.8125.5625.3125.125 1.859375.546875 2.234375.59375 3.109375.984375.890625.375 1.390625 1.109375.515625.71875.515625 1.796875 0 1.046875-.625 1.984375-.609375.9375-1.765625 1.453125-1.15625.5-2.625.5-2.421875 0-3.703125-1-1.265625-1.015625-1.625-3zm20.96875-.84375 2.078125.265625q-.34375 2.15625-1.75 3.375-1.390625 1.203125-3.4375 1.203125-2.546875 0-4.109375-1.671875-1.546875-1.671875-1.546875-4.78125 0-2.015625.671875-3.53125.671875-1.515625 2.03125-2.265625 1.359375-.765625 2.96875-.765625 2.03125 0 3.3125 1.03125 1.296875 1.03125 1.65625 2.90625l-2.046875.328125q-.296875-1.265625-1.046875-1.890625-.734375-.640625-1.796875-.640625-1.59375 0-2.59375 1.15625-.984375 1.140625-.984375 3.609375 0 2.5.953125 3.640625.96875 1.140625 2.515625 1.140625 1.234375 0 2.0625-.765625.84375-.765625 1.0625-2.34375zm12 3.03125q-1.171875.984375-2.265625 1.40625-1.078125.40625-2.3125.40625-2.046875 0-3.15625-1-1.09375-1-1.09375-2.5625 0-.921875.40625-1.671875.421875-.75 1.09375-1.203125.671875-.46875 1.515625-.703125.625-.15625 1.875-.3125 2.5625-.3125 3.765625-.734375.015625-.421875.015625-.546875 0-1.28125-.609375-1.8125-.796875-.71875-2.390625-.71875-1.5 0-2.203125.53125-.703125.515625-1.046875 1.84375l-2.0625-.28125q.28125-1.328125.921875-2.140625.640625-.8125 1.859375-1.25 1.21875-.453125 2.828125-.453125 1.59375 0 2.59375.375 1 .375 1.46875.953125.46875.5625.65625 1.4375.09375.53125.09375 1.9375v2.8125q0 2.9375.140625 3.71875.140625.78125.53125 1.5h-2.203125q-.328125-.65625-.421875-1.53125zm-.171875-4.71875q-1.15625.46875-3.453125.796875-1.296875.1875-1.84375.421875-.53125.234375-.828125.6875-.28125.453125-.28125 1 0 .84375.625 1.40625.640625.5625 1.875.5625 1.21875 0 2.171875-.53125.953125-.53125 1.390625-1.453125.34375-.71875.34375-2.109375zm5.3476562 6.25v-17.1875h2.109375v17.1875zm13.910156-4.015625 2.171875.28125q-.515625 1.90625-1.90625 2.96875-1.390625 1.046875-3.5625 1.046875-2.734375 0-4.34375-1.671875-1.59375-1.6875-1.59375-4.734375 0-3.140625 1.609375-4.875 1.625-1.734375 4.203125-1.734375 2.5 0 4.078125 1.703125 1.59375 1.703125 1.59375 4.78125 0 .1875-.015625.5625h-9.28125q.109375 2.046875 1.15625 3.140625 1.046875 1.09375 2.609375 1.09375 1.15625 0 1.96875-.609375.828125-.609375 1.3125-1.953125zm-6.9375-3.40625h6.953125q-.140625-1.5625-.796875-2.359375-1-1.21875-2.609375-1.21875-1.453125 0-2.453125.984375-.984375.96875-1.09375 2.59375zm11.738281 7.421875v-12.453125h1.890625v1.890625q.734375-1.328125 1.34375-1.75.625-.421875 1.359375-.421875 1.0625 0 2.171875.6875l-.734375 1.953125q-.765625-.453125-1.546875-.453125-.6875 0-1.25.421875-.546875.40625-.78125 1.140625-.34375 1.125-.34375 2.46875v6.515625z"/></g><path d="m614.50397 436.99213v-88" fill="none"/><path d="m614.50397 436.99213v-76" fill-rule="evenodd" stroke="#000" stroke-linecap="butt" stroke-linejoin="round" stroke-width="2"/><path d="m617.8074 360.99213-3.3034058-9.076202-3.3034668 9.076202z" fill="#000" fill-rule="evenodd" stroke="#000" stroke-linecap="butt" stroke-width="2"/></g></svg>