<svg enable-background="new 0 0 656 486" viewBox="0 0 656 486" xml:space="preserve" xmlns="http://www.w3.org/2000/svg"><g stroke="#000"><path d="m104.3 72.5h545.8v253.1h-545.8z" fill="none" stroke-width=".8425"/><g stroke-width="2.0786" transform="matrix(1 0 0 -.92578962 15.303948 1193.1996)"><path d="m485.1 1264.5c0-71.3 0-71.3 0-71.3" fill="none"/><path d="m476.8 1202.5 8.7-15 8.7 15z" stroke-linecap="round"/></g><g stroke-width="2.0786" transform="matrix(-.83212211 -1.1231515 .89570092 -.89430772 -72.942206 1678.3161)"><path d="m501.5 1075.9c0-71.3 0-71.3 0-71.3" fill="none"/><path d="m493.2 1013.9 8.7-15 8.7 15z" stroke-linecap="round"/></g><g transform="matrix(.96592583 .25881905 .25881905 -.96592583 -272.81074 1126.238)"><path d="m362 988.4c-102-113.8-102-113.8-102-113.8" fill="none" stroke-width="5"/><path d="m253 881.5-4.8-18.4 17.8 6.9z" stroke-linecap="round" stroke-width="4.7036"/></g><g transform="matrix(-.96592583 .25881905 -.25881905 -.96592583 654.32964 1126.238)"><path d="m76.1 911.8c-102-113.8-102-113.8-102-113.8" fill="none" stroke-width="5"/><path d="m-32.9 804.9-4.8-18.4 17.8 6.9z" stroke-linecap="round" stroke-width="4.7036"/></g><g stroke-width="4.2928" transform="matrix(1 0 0 -1.3566066 -154.75999 1749.5431)"><path d="m485.1 1103.7c0-71.3 0-71.3 0-71.3" fill="none"/><path d="m476.8 1041.6 8.7-15 8.7 15z" stroke-linecap="round"/></g></g><g transform="matrix(.88792337 0 0 1 -168.84671 769.730747)"><path d="m196.7-408.1h224.3v118.6h-224.3z" fill="#85bff1" stroke="#000" stroke-linecap="round" stroke-linejoin="round" stroke-width="2"/><g font-family="'ArialMT'"><text font-size="32" transform="translate(203.3918 -377.1545)">Backend Pod 1</text><text font-size="24" transform="translate(203.824 -338.0667)">labels: app=MyApp</text><text font-size="24" transform="translate(203.824 -308.0667)">port: 9376</text></g></g><g transform="matrix(.88792337 0 0 1 49.64585 769.730747)"><path d="m196.7-408.1h224.3v118.6h-224.3z" fill="#85bff1" stroke="#000" stroke-linecap="round" stroke-linejoin="round" stroke-width="2"/><g font-family="'ArialMT'"><text font-size="32" transform="translate(203.3919 -377.1545)">Backend Pod 2</text><text font-size="24" transform="translate(203.8241 -338.0667)">labels: app=MyApp</text><text font-size="24" transform="translate(203.8241 -308.0667)">port: 9376</text></g></g><g transform="matrix(.88792337 0 0 1 268.13843 769.730747)"><path d="m196.7-408.1h224.3v118.6h-224.3z" fill="#85bff1" stroke="#000" stroke-linecap="round" stroke-linejoin="round" stroke-width="2"/><g font-family="'ArialMT'"><text font-size="32" transform="translate(203.392 -377.1545)">Backend Pod 3</text><text font-size="24" transform="translate(203.8237 -338.0667)">labels: app=MyApp</text><text font-size="24" transform="translate(203.8237 -308.0667)">port: 9376</text></g></g><g stroke="#000" stroke-width="5.1965" transform="matrix(.91192623 -.41035418 -.37990164 -.84425184 113.60453 1385.4009)"><path d="m664.6 1154.3c0-71.3 0-71.3 0-71.3" fill="none"/><path d="m656.2 1092.3 8.7-15 8.7 15z" stroke-linecap="round"/></g><g transform="matrix(.89067003 0 0 1 -194.97295 -142.36286)"><path d="m388 235.5h224.3v58.6h-224.3z" fill="#f1cb85" stroke="#000" stroke-linecap="round" stroke-linejoin="round" stroke-width="2"/><text font-family="'ArialMT'" font-size="32" transform="translate(451.3596 275.59046)">Client </text></g><g transform="matrix(.89067003 0 0 1 199.65922 -24.251798)"><path d="m216.9 119.8h250v58.6h-250z" fill="#b9f185" stroke="#000" stroke-linecap="round" stroke-linejoin="round" stroke-width="2"/><text font-family="'ArialMT'" font-size="32" transform="translate(261.369433 157.47637)">kube-proxy</text></g><path d="m410.030759 4.416343h191.8v58.6h-191.8z" fill="#edc1f8" stroke="#000" stroke-linecap="round" stroke-linejoin="round" stroke-width="2"/><text font-family="'ArialMT'" font-size="32" transform="translate(433.949088 41.724813)">apiserver</text><path d="m332.5 202c-14.5 0-27 8.6-33 21.2-5-.9-10.3-1.4-15.8-1.4-34.3 0-62.2 19.1-62.2 42.6s27.8 42.6 62.2 42.6c16.9 0 32.2-4.6 43.4-12.2 7.4 16.3 34 28.3 65.7 28.3 33.5 0 61.4-13.4 66.8-31.1 17-5.3 28.6-15.7 28.6-27.7 0-17.3-24.4-31.4-54.4-31.4-8.5 0-16.5 1.1-23.6 3.1-2-10.5-14.8-18.6-30.3-18.6-5.8 0-11.2 1.2-15.9 3.1-6.3-11-18.1-18.5-31.5-18.5z" fill="#ffe680" stroke="#000" stroke-width="1.7787"/><text font-family="'ArialMT'" font-size="32" transform="matrix(.89067003 0 0 1 266.25635958369 250.44433)">ServiceIP</text><text font-family="'ArialMT'" font-size="32" transform="matrix(.89067003 0 0 1 266.25635958369 290.44433)">(iptables) </text><text font-family="'MyriadPro-Regular'" font-size="40" transform="translate(537.5965 317.8163)">Node</text></svg>